#extradata 0:        2, 0x00b200a1
#tb 0: 1/1000
#media_type 0: audio
#codec_id 0: aac
#sample_rate 0: 48000
#channel_layout 0: 3
0,         42,         42,       21,        6, 0x027e00e8
0,         63,         63,       21,        6, 0x027e00e8
0,         84,         84,       21,        6, 0x027e00e8
0,        105,        105,       21,        6, 0x027e00e8
0,        127,        127,       21,        6, 0x027e00e8
0,        148,        148,       21,       24, 0x886f0c1f
0,        169,        169,       21,      550, 0xf863059c
0,        190,        190,       22,      596, 0x32d414c1
0,        213,        213,       21,      247, 0x2d0776c9
0,        234,        234,       21,      264, 0xf04a7b44
0,        255,        255,       21,      251, 0xc7628539
0,        276,        276,       22,      243, 0x99ef768b
0,        298,        298,       21,      257, 0x233f7ccc
0,        319,        319,       21,      264, 0x7d9f7bd9
0,        340,        340,       21,      298, 0x51478f98
0,        361,        361,       22,      323, 0x419d9938
0,        383,        383,       21,      309, 0x6219980c
0,        404,        404,       21,      325, 0x3fb3976f
0,        425,        425,       21,      325, 0xcd7a9fd6
0,        446,        446,       22,      359, 0x6edeb91c
0,        468,        468,       21,      333, 0xb8999fb7
0,        489,        489,       21,      317, 0xf2589e1a
0,        510,        510,       21,      319, 0x82ed9572
0,        531,        531,       22,      473, 0xea54e696
